<svg width="164" height="135" viewBox="0 0 164 135" fill="none" xmlns="http://www.w3.org/2000/svg">
<rect width="4.89474" height="4.89474" fill="#234125"/>
<rect x="45.4737" width="4.89474" height="4.89474" fill="#234125"/>
<rect x="22.7368" y="18.3158" width="4.89474" height="4.89474" fill="#234125"/>
<rect x="68.2105" y="18.3158" width="4.89474" height="4.89474" fill="#234125"/>
<rect y="36.6316" width="4.89474" height="4.89474" fill="#234125"/>
<rect x="45.4737" y="36.6316" width="4.89474" height="4.89474" fill="#234125"/>
<rect x="22.7368" y="54.9474" width="4.89474" height="4.89474" fill="#234125"/>
<rect x="68.2105" y="54.9474" width="4.89474" height="4.89474" fill="#234125"/>
<rect x="90.3158" width="4.89474" height="4.89474" fill="#234125"/>
<rect x="135.789" width="4.89474" height="4.89474" fill="#234125"/>
<rect x="113.053" y="18.3158" width="4.89474" height="4.89474" fill="#234125"/>
<rect x="158.526" y="18.3158" width="4.89474" height="4.89474" fill="#234125"/>
<rect x="90.3158" y="36.6316" width="4.89474" height="4.89474" fill="#234125"/>
<rect x="135.789" y="36.6316" width="4.89474" height="4.89474" fill="#234125"/>
<rect x="113.053" y="54.9474" width="4.89474" height="4.89474" fill="#234125"/>
<rect x="158.526" y="54.9474" width="4.89474" height="4.89474" fill="#234125"/>
<rect y="75.158" width="4.89474" height="4.89474" fill="#234125"/>
<rect x="45.4737" y="75.158" width="4.89474" height="4.89474" fill="#234125"/>
<rect x="22.7368" y="93.4736" width="4.89474" height="4.89474" fill="#234125"/>
<rect x="68.2105" y="93.4736" width="4.89474" height="4.89474" fill="#234125"/>
<rect y="111.789" width="4.89474" height="4.89474" fill="#234125"/>
<rect x="45.4737" y="111.789" width="4.89474" height="4.89474" fill="#234125"/>
<rect x="22.7368" y="130.105" width="4.89474" height="4.89474" fill="#234125"/>
<rect x="68.2105" y="130.105" width="4.89474" height="4.89474" fill="#234125"/>
<rect x="90.3158" y="75.158" width="4.89474" height="4.89474" fill="#234125"/>
<rect x="135.789" y="75.158" width="4.89474" height="4.89474" fill="#234125"/>
<rect x="113.053" y="93.4736" width="4.89474" height="4.89474" fill="#234125"/>
<rect x="158.526" y="93.4736" width="4.89474" height="4.89474" fill="#234125"/>
<rect x="90.3158" y="111.789" width="4.89474" height="4.89474" fill="#234125"/>
<rect x="135.789" y="111.789" width="4.89474" height="4.89474" fill="#234125"/>
<rect x="113.053" y="130.105" width="4.89474" height="4.89474" fill="#234125"/>
<rect x="158.526" y="130.105" width="4.89474" height="4.89474" fill="#234125"/>
</svg>
