<svg id="Camada_1" data-name="Camada 1" xmlns="http://www.w3.org/2000/svg" viewBox="0 0 262.57 165.38"><defs><style>.cls-1{fill:#234125;}</style></defs><rect class="cls-1" x="23.14" width="8" height="8"/><rect class="cls-1" x="69.43" y="0.05" width="8" height="8"/><rect class="cls-1" x="115.71" y="0.05" width="8" height="8"/><rect class="cls-1" x="162" y="0.05" width="8" height="8"/><rect class="cls-1" x="208.29" y="0.05" width="8" height="8"/><rect class="cls-1" x="254.57" y="0.05" width="8" height="8"/><rect class="cls-1" y="31.22" width="8" height="8"/><rect class="cls-1" x="46.29" y="31.28" width="8" height="8"/><rect class="cls-1" x="92.57" y="31.28" width="8" height="8"/><rect class="cls-1" x="138.86" y="31.28" width="8" height="8"/><rect class="cls-1" x="185.14" y="31.28" width="8" height="8"/><rect class="cls-1" x="231.43" y="31.28" width="8" height="8"/><rect class="cls-1" x="23.14" y="63" width="8" height="8"/><rect class="cls-1" x="69.43" y="63.05" width="8" height="8"/><rect class="cls-1" x="115.71" y="63.05" width="8" height="8"/><rect class="cls-1" x="162" y="63.05" width="8" height="8"/><rect class="cls-1" x="208.29" y="63.05" width="8" height="8"/><rect class="cls-1" x="254.57" y="63.05" width="8" height="8"/><rect class="cls-1" y="94.22" width="8" height="8"/><rect class="cls-1" x="46.29" y="94.28" width="8" height="8"/><rect class="cls-1" x="92.57" y="94.28" width="8" height="8"/><rect class="cls-1" x="138.86" y="94.28" width="8" height="8"/><rect class="cls-1" x="185.14" y="94.28" width="8" height="8"/><rect class="cls-1" x="231.43" y="94.28" width="8" height="8"/><rect class="cls-1" x="23.14" y="126.11" width="8" height="8"/><rect class="cls-1" x="69.43" y="126.16" width="8" height="8"/><rect class="cls-1" x="115.71" y="126.16" width="8" height="8"/><rect class="cls-1" x="162" y="126.16" width="8" height="8"/><rect class="cls-1" x="208.29" y="126.16" width="8" height="8"/><rect class="cls-1" x="254.57" y="126.16" width="8" height="8"/><rect class="cls-1" y="157.33" width="8" height="8"/><rect class="cls-1" x="46.29" y="157.38" width="8" height="8"/><rect class="cls-1" x="92.57" y="157.38" width="8" height="8"/><rect class="cls-1" x="138.86" y="157.38" width="8" height="8"/><rect class="cls-1" x="185.14" y="157.38" width="8" height="8"/><rect class="cls-1" x="231.43" y="157.38" width="8" height="8"/></svg>