<svg width="373" height="59" viewBox="0 0 373 59" fill="none" xmlns="http://www.w3.org/2000/svg">
<path d="M96.16 18V1.2H99.04V18H96.16ZM115.811 18H113.195L106.235 7.392C106.011 7.056 105.779 6.64 105.539 6.144C105.587 6.528 105.611 6.944 105.611 7.392V18H102.755V1.2H105.539L112.331 11.64C112.491 11.88 112.723 12.304 113.027 12.912C112.979 12.48 112.955 12.056 112.955 11.64V1.2H115.811V18ZM124.784 18.288C123.248 18.288 121.92 17.904 120.8 17.136C119.696 16.352 118.912 15.288 118.448 13.944L121.112 12.96C121.464 13.744 121.968 14.376 122.624 14.856C123.28 15.32 124.032 15.552 124.88 15.552C125.76 15.552 126.456 15.352 126.968 14.952C127.496 14.552 127.76 13.976 127.76 13.224C127.76 12.92 127.688 12.64 127.544 12.384C127.4 12.112 127.232 11.888 127.04 11.712C126.864 11.536 126.592 11.36 126.224 11.184C125.856 11.008 125.544 10.872 125.288 10.776C125.032 10.664 124.656 10.528 124.16 10.368C123.52 10.144 123.024 9.968 122.672 9.84C122.336 9.712 121.896 9.504 121.352 9.216C120.824 8.912 120.416 8.608 120.128 8.304C119.856 8 119.608 7.6 119.384 7.104C119.176 6.592 119.072 6.032 119.072 5.424C119.072 4.144 119.568 3.072 120.56 2.208C121.552 1.344 122.896 0.912 124.592 0.912C126 0.912 127.168 1.248 128.096 1.92C129.024 2.576 129.648 3.44 129.968 4.512L127.376 5.376C126.864 4.224 125.872 3.648 124.4 3.648C123.648 3.648 123.056 3.808 122.624 4.128C122.208 4.432 122 4.872 122 5.448C122 5.832 122.16 6.176 122.48 6.48C122.816 6.784 123.168 7.016 123.536 7.176C123.92 7.32 124.48 7.512 125.216 7.752C125.696 7.928 126.056 8.064 126.296 8.16C126.552 8.24 126.904 8.384 127.352 8.592C127.8 8.8 128.152 8.992 128.408 9.168C128.664 9.328 128.952 9.552 129.272 9.84C129.608 10.128 129.864 10.432 130.04 10.752C130.216 11.056 130.368 11.424 130.496 11.856C130.624 12.272 130.688 12.728 130.688 13.224C130.688 14.792 130.128 16.032 129.008 16.944C127.904 17.84 126.496 18.288 124.784 18.288ZM140.009 18.288C139.001 18.288 138.089 18.12 137.273 17.784C136.457 17.448 135.785 17 135.257 16.44C134.745 15.88 134.313 15.216 133.961 14.448C133.609 13.68 133.353 12.896 133.193 12.096C133.049 11.296 132.977 10.464 132.977 9.6C132.977 8.576 133.105 7.576 133.361 6.6C133.617 5.624 134.009 4.704 134.537 3.84C135.065 2.96 135.801 2.256 136.745 1.728C137.689 1.184 138.777 0.912 140.009 0.912C141.497 0.912 142.745 1.264 143.753 1.968C144.761 2.656 145.465 3.496 145.865 4.488L143.273 5.664C142.825 4.976 142.353 4.472 141.857 4.152C141.377 3.832 140.761 3.672 140.009 3.672C139.273 3.672 138.625 3.856 138.065 4.224C137.521 4.576 137.097 5.056 136.793 5.664C136.505 6.256 136.289 6.888 136.145 7.56C136.017 8.216 135.953 8.896 135.953 9.6C135.953 11.168 136.297 12.544 136.985 13.728C137.689 14.912 138.697 15.504 140.009 15.504C141.289 15.504 142.361 14.784 143.225 13.344L145.889 14.352C144.721 16.976 142.761 18.288 140.009 18.288ZM148.565 18V1.2H156.005C157.941 1.2 159.341 1.68 160.205 2.64C161.085 3.6 161.525 4.824 161.525 6.312C161.525 7.352 161.229 8.328 160.637 9.24C160.045 10.152 159.189 10.776 158.069 11.112L161.429 18H158.189L154.949 11.424H151.445V18H148.565ZM151.445 8.688H156.053C156.917 8.688 157.549 8.464 157.949 8.016C158.349 7.568 158.549 7 158.549 6.312C158.549 5.64 158.357 5.08 157.973 4.632C157.589 4.168 156.949 3.936 156.053 3.936H151.445V8.688ZM164.515 18V1.2H175.459V3.912H167.395V7.968H172.363V10.68H167.395V15.288H175.987V18H164.515ZM183.41 18L177.554 1.2H180.65L184.418 12.552C184.626 13.272 184.77 13.784 184.85 14.088C184.914 13.752 185.05 13.24 185.258 12.552L189.002 1.2H192.05L186.218 18H183.41ZM203.286 18L201.966 14.328H195.318L193.998 18H190.95L197.214 1.2H200.07L206.31 18H203.286ZM201.054 11.736L199.206 6.696C198.966 6.088 198.782 5.52 198.654 4.992C198.526 5.456 198.342 6.024 198.102 6.696L196.23 11.736H201.054ZM208.515 12.24V9.528H214.611V12.24H208.515ZM223.354 18.288C221.818 18.288 220.49 17.904 219.37 17.136C218.266 16.352 217.482 15.288 217.018 13.944L219.682 12.96C220.034 13.744 220.538 14.376 221.194 14.856C221.85 15.32 222.602 15.552 223.45 15.552C224.33 15.552 225.026 15.352 225.538 14.952C226.066 14.552 226.33 13.976 226.33 13.224C226.33 12.92 226.258 12.64 226.114 12.384C225.97 12.112 225.802 11.888 225.61 11.712C225.434 11.536 225.162 11.36 224.794 11.184C224.426 11.008 224.114 10.872 223.858 10.776C223.602 10.664 223.226 10.528 222.73 10.368C222.09 10.144 221.594 9.968 221.242 9.84C220.906 9.712 220.466 9.504 219.922 9.216C219.394 8.912 218.986 8.608 218.698 8.304C218.426 8 218.178 7.6 217.954 7.104C217.746 6.592 217.642 6.032 217.642 5.424C217.642 4.144 218.138 3.072 219.13 2.208C220.122 1.344 221.466 0.912 223.162 0.912C224.57 0.912 225.738 1.248 226.666 1.92C227.594 2.576 228.218 3.44 228.538 4.512L225.946 5.376C225.434 4.224 224.442 3.648 222.97 3.648C222.218 3.648 221.626 3.808 221.194 4.128C220.778 4.432 220.57 4.872 220.57 5.448C220.57 5.832 220.73 6.176 221.05 6.48C221.386 6.784 221.738 7.016 222.106 7.176C222.49 7.32 223.05 7.512 223.786 7.752C224.266 7.928 224.626 8.064 224.866 8.16C225.122 8.24 225.474 8.384 225.922 8.592C226.37 8.8 226.722 8.992 226.978 9.168C227.234 9.328 227.522 9.552 227.842 9.84C228.178 10.128 228.434 10.432 228.61 10.752C228.786 11.056 228.938 11.424 229.066 11.856C229.194 12.272 229.258 12.728 229.258 13.224C229.258 14.792 228.698 16.032 227.578 16.944C226.474 17.84 225.066 18.288 223.354 18.288ZM232.146 18V1.2H243.09V3.912H235.026V7.968H239.994V10.68H235.026V15.288H243.618V18H232.146ZM270.247 18H267.631L260.671 7.392C260.447 7.056 260.215 6.64 259.975 6.144C260.023 6.528 260.047 6.944 260.047 7.392V18H257.191V1.2H259.975L266.767 11.64C266.927 11.88 267.159 12.304 267.463 12.912C267.415 12.48 267.391 12.056 267.391 11.64V1.2H270.247V18ZM280.611 18.288C279.571 18.288 278.627 18.12 277.779 17.784C276.931 17.448 276.227 17 275.667 16.44C275.123 15.864 274.659 15.2 274.275 14.448C273.907 13.696 273.643 12.92 273.483 12.12C273.323 11.304 273.243 10.464 273.243 9.6C273.243 8.736 273.323 7.904 273.483 7.104C273.643 6.288 273.907 5.504 274.275 4.752C274.659 4 275.123 3.344 275.667 2.784C276.227 2.208 276.931 1.752 277.779 1.416C278.627 1.08 279.571 0.912 280.611 0.912C281.907 0.912 283.043 1.168 284.019 1.68C285.011 2.176 285.779 2.856 286.323 3.72C286.883 4.568 287.299 5.488 287.571 6.48C287.843 7.472 287.979 8.512 287.979 9.6C287.979 10.688 287.843 11.728 287.571 12.72C287.299 13.712 286.883 14.64 286.323 15.504C285.779 16.352 285.011 17.032 284.019 17.544C283.043 18.04 281.907 18.288 280.611 18.288ZM280.611 15.528C281.379 15.528 282.059 15.344 282.651 14.976C283.243 14.608 283.699 14.128 284.019 13.536C284.355 12.928 284.603 12.296 284.763 11.64C284.923 10.968 285.003 10.288 285.003 9.6C285.003 8.864 284.923 8.168 284.763 7.512C284.603 6.84 284.355 6.208 284.019 5.616C283.699 5.024 283.243 4.552 282.651 4.2C282.075 3.848 281.395 3.672 280.611 3.672C279.587 3.672 278.731 4 278.043 4.656C277.355 5.296 276.875 6.04 276.603 6.888C276.347 7.736 276.219 8.64 276.219 9.6C276.219 10.32 276.299 11.016 276.459 11.688C276.619 12.36 276.859 12.992 277.179 13.584C277.515 14.176 277.971 14.648 278.547 15C279.139 15.352 279.827 15.528 280.611 15.528ZM309.447 18H306.831L299.871 7.392C299.647 7.056 299.415 6.64 299.175 6.144C299.223 6.528 299.247 6.944 299.247 7.392V18H296.391V1.2H299.175L305.967 11.64C306.127 11.88 306.359 12.304 306.663 12.912C306.615 12.48 306.591 12.056 306.591 11.64V1.2H309.447V18ZM319.812 18.288C318.772 18.288 317.828 18.12 316.98 17.784C316.132 17.448 315.428 17 314.868 16.44C314.324 15.864 313.86 15.2 313.476 14.448C313.108 13.696 312.844 12.92 312.684 12.12C312.524 11.304 312.444 10.464 312.444 9.6C312.444 8.736 312.524 7.904 312.684 7.104C312.844 6.288 313.108 5.504 313.476 4.752C313.86 4 314.324 3.344 314.868 2.784C315.428 2.208 316.132 1.752 316.98 1.416C317.828 1.08 318.772 0.912 319.812 0.912C321.108 0.912 322.244 1.168 323.22 1.68C324.212 2.176 324.98 2.856 325.524 3.72C326.084 4.568 326.5 5.488 326.772 6.48C327.044 7.472 327.18 8.512 327.18 9.6C327.18 10.688 327.044 11.728 326.772 12.72C326.5 13.712 326.084 14.64 325.524 15.504C324.98 16.352 324.212 17.032 323.22 17.544C322.244 18.04 321.108 18.288 319.812 18.288ZM319.812 15.528C320.58 15.528 321.26 15.344 321.852 14.976C322.444 14.608 322.9 14.128 323.22 13.536C323.556 12.928 323.804 12.296 323.964 11.64C324.124 10.968 324.204 10.288 324.204 9.6C324.204 8.864 324.124 8.168 323.964 7.512C323.804 6.84 323.556 6.208 323.22 5.616C322.9 5.024 322.444 4.552 321.852 4.2C321.276 3.848 320.596 3.672 319.812 3.672C318.788 3.672 317.932 4 317.244 4.656C316.556 5.296 316.076 6.04 315.804 6.888C315.548 7.736 315.42 8.64 315.42 9.6C315.42 10.32 315.5 11.016 315.66 11.688C315.82 12.36 316.06 12.992 316.38 13.584C316.716 14.176 317.172 14.648 317.748 15C318.34 15.352 319.028 15.528 319.812 15.528ZM335.565 18.288C334.029 18.288 332.701 17.904 331.581 17.136C330.477 16.352 329.693 15.288 329.229 13.944L331.893 12.96C332.245 13.744 332.749 14.376 333.405 14.856C334.061 15.32 334.813 15.552 335.661 15.552C336.541 15.552 337.237 15.352 337.749 14.952C338.277 14.552 338.541 13.976 338.541 13.224C338.541 12.92 338.469 12.64 338.325 12.384C338.181 12.112 338.013 11.888 337.821 11.712C337.645 11.536 337.373 11.36 337.005 11.184C336.637 11.008 336.325 10.872 336.069 10.776C335.813 10.664 335.437 10.528 334.941 10.368C334.301 10.144 333.805 9.968 333.453 9.84C333.117 9.712 332.677 9.504 332.133 9.216C331.605 8.912 331.197 8.608 330.909 8.304C330.637 8 330.389 7.6 330.165 7.104C329.957 6.592 329.853 6.032 329.853 5.424C329.853 4.144 330.349 3.072 331.341 2.208C332.333 1.344 333.677 0.912 335.373 0.912C336.781 0.912 337.949 1.248 338.877 1.92C339.805 2.576 340.429 3.44 340.749 4.512L338.157 5.376C337.645 4.224 336.653 3.648 335.181 3.648C334.429 3.648 333.837 3.808 333.405 4.128C332.989 4.432 332.781 4.872 332.781 5.448C332.781 5.832 332.941 6.176 333.261 6.48C333.597 6.784 333.949 7.016 334.317 7.176C334.701 7.32 335.261 7.512 335.997 7.752C336.477 7.928 336.837 8.064 337.077 8.16C337.333 8.24 337.685 8.384 338.133 8.592C338.581 8.8 338.933 8.992 339.189 9.168C339.445 9.328 339.733 9.552 340.053 9.84C340.389 10.128 340.645 10.432 340.821 10.752C340.997 11.056 341.149 11.424 341.277 11.856C341.405 12.272 341.469 12.728 341.469 13.224C341.469 14.792 340.909 16.032 339.789 16.944C338.685 17.84 337.277 18.288 335.565 18.288ZM349.734 18.288C348.198 18.288 346.87 17.904 345.75 17.136C344.646 16.352 343.862 15.288 343.398 13.944L346.062 12.96C346.414 13.744 346.918 14.376 347.574 14.856C348.23 15.32 348.982 15.552 349.83 15.552C350.71 15.552 351.406 15.352 351.918 14.952C352.446 14.552 352.71 13.976 352.71 13.224C352.71 12.92 352.638 12.64 352.494 12.384C352.35 12.112 352.182 11.888 351.99 11.712C351.814 11.536 351.542 11.36 351.174 11.184C350.806 11.008 350.494 10.872 350.238 10.776C349.982 10.664 349.606 10.528 349.11 10.368C348.47 10.144 347.974 9.968 347.622 9.84C347.286 9.712 346.846 9.504 346.302 9.216C345.774 8.912 345.366 8.608 345.078 8.304C344.806 8 344.558 7.6 344.334 7.104C344.126 6.592 344.022 6.032 344.022 5.424C344.022 4.144 344.518 3.072 345.51 2.208C346.502 1.344 347.846 0.912 349.542 0.912C350.95 0.912 352.118 1.248 353.046 1.92C353.974 2.576 354.598 3.44 354.918 4.512L352.326 5.376C351.814 4.224 350.822 3.648 349.35 3.648C348.598 3.648 348.006 3.808 347.574 4.128C347.158 4.432 346.95 4.872 346.95 5.448C346.95 5.832 347.11 6.176 347.43 6.48C347.766 6.784 348.118 7.016 348.486 7.176C348.87 7.32 349.43 7.512 350.166 7.752C350.646 7.928 351.006 8.064 351.246 8.16C351.502 8.24 351.854 8.384 352.302 8.592C352.75 8.8 353.102 8.992 353.358 9.168C353.614 9.328 353.902 9.552 354.222 9.84C354.558 10.128 354.814 10.432 354.99 10.752C355.166 11.056 355.318 11.424 355.446 11.856C355.574 12.272 355.638 12.728 355.638 13.224C355.638 14.792 355.078 16.032 353.958 16.944C352.854 17.84 351.446 18.288 349.734 18.288ZM365.294 18.288C364.254 18.288 363.31 18.12 362.462 17.784C361.614 17.448 360.91 17 360.35 16.44C359.806 15.864 359.342 15.2 358.958 14.448C358.59 13.696 358.326 12.92 358.166 12.12C358.006 11.304 357.926 10.464 357.926 9.6C357.926 8.736 358.006 7.904 358.166 7.104C358.326 6.288 358.59 5.504 358.958 4.752C359.342 4 359.806 3.344 360.35 2.784C360.91 2.208 361.614 1.752 362.462 1.416C363.31 1.08 364.254 0.912 365.294 0.912C366.59 0.912 367.726 1.168 368.702 1.68C369.694 2.176 370.462 2.856 371.006 3.72C371.566 4.568 371.982 5.488 372.254 6.48C372.526 7.472 372.662 8.512 372.662 9.6C372.662 10.688 372.526 11.728 372.254 12.72C371.982 13.712 371.566 14.64 371.006 15.504C370.462 16.352 369.694 17.032 368.702 17.544C367.726 18.04 366.59 18.288 365.294 18.288ZM365.294 15.528C366.062 15.528 366.742 15.344 367.334 14.976C367.926 14.608 368.382 14.128 368.702 13.536C369.038 12.928 369.286 12.296 369.446 11.64C369.606 10.968 369.686 10.288 369.686 9.6C369.686 8.864 369.606 8.168 369.446 7.512C369.286 6.84 369.038 6.208 368.702 5.616C368.382 5.024 367.926 4.552 367.334 4.2C366.758 3.848 366.078 3.672 365.294 3.672C364.27 3.672 363.414 4 362.726 4.656C362.038 5.296 361.558 6.04 361.286 6.888C361.03 7.736 360.902 8.64 360.902 9.6C360.902 10.32 360.982 11.016 361.142 11.688C361.302 12.36 361.542 12.992 361.862 13.584C362.198 14.176 362.654 14.648 363.23 15C363.822 15.352 364.51 15.528 365.294 15.528ZM97.6 58V30H102.4V58H97.6ZM132.752 58H128.392L116.792 40.32C116.419 39.76 116.032 39.0667 115.632 38.24C115.712 38.88 115.752 39.5733 115.752 40.32V58H110.992V30H115.632L126.952 47.4C127.219 47.8 127.606 48.5067 128.112 49.52C128.032 48.8 127.992 48.0933 127.992 47.4V30H132.752V58ZM141.147 58V30H159.227V34.52H145.947V41.28H154.427V45.8H145.947V58H141.147ZM175.707 58.48C173.973 58.48 172.4 58.2 170.987 57.64C169.573 57.08 168.4 56.3333 167.467 55.4C166.56 54.44 165.787 53.3333 165.147 52.08C164.533 50.8267 164.093 49.5333 163.827 48.2C163.56 46.84 163.427 45.44 163.427 44C163.427 42.56 163.56 41.1733 163.827 39.84C164.093 38.48 164.533 37.1733 165.147 35.92C165.787 34.6667 166.56 33.5733 167.467 32.64C168.4 31.68 169.573 30.92 170.987 30.36C172.4 29.8 173.973 29.52 175.707 29.52C177.867 29.52 179.76 29.9467 181.387 30.8C183.04 31.6267 184.32 32.76 185.227 34.2C186.16 35.6133 186.853 37.1467 187.307 38.8C187.76 40.4533 187.987 42.1867 187.987 44C187.987 45.8133 187.76 47.5467 187.307 49.2C186.853 50.8533 186.16 52.4 185.227 53.84C184.32 55.2533 183.04 56.3867 181.387 57.24C179.76 58.0667 177.867 58.48 175.707 58.48ZM175.707 53.88C176.987 53.88 178.12 53.5733 179.107 52.96C180.093 52.3467 180.853 51.5467 181.387 50.56C181.947 49.5467 182.36 48.4933 182.627 47.4C182.893 46.28 183.027 45.1467 183.027 44C183.027 42.7733 182.893 41.6133 182.627 40.52C182.36 39.4 181.947 38.3467 181.387 37.36C180.853 36.3733 180.093 35.5867 179.107 35C178.147 34.4133 177.013 34.12 175.707 34.12C174 34.12 172.573 34.6667 171.427 35.76C170.28 36.8267 169.48 38.0667 169.027 39.48C168.6 40.8933 168.387 42.4 168.387 44C168.387 45.2 168.52 46.36 168.787 47.48C169.053 48.6 169.453 49.6533 169.987 50.64C170.547 51.6267 171.307 52.4133 172.267 53C173.253 53.5867 174.4 53.88 175.707 53.88ZM195.402 58V30H207.802C211.028 30 213.362 30.8 214.802 32.4C216.268 34 217.002 36.04 217.002 38.52C217.002 40.2533 216.508 41.88 215.522 43.4C214.535 44.92 213.108 45.96 211.242 46.52L216.842 58H211.442L206.042 47.04H200.202V58H195.402ZM200.202 42.48H207.882C209.322 42.48 210.375 42.1067 211.042 41.36C211.708 40.6133 212.042 39.6667 212.042 38.52C212.042 37.4 211.722 36.4667 211.082 35.72C210.442 34.9467 209.375 34.56 207.882 34.56H200.202V42.48ZM249.864 58H245.064V43.12C245.064 41.8933 245.118 40.7733 245.224 39.76C244.904 40.72 244.478 41.8667 243.944 43.2L237.144 58.48L230.344 43.12C229.864 42.0533 229.424 40.9333 229.024 39.76C229.131 40.7733 229.184 41.8933 229.184 43.12V58H224.384V30H229.224L236.424 46.44C236.718 47.1867 236.971 47.88 237.184 48.52C237.398 47.88 237.651 47.1867 237.944 46.44L245.184 30H249.864V58ZM276.304 58L274.104 51.88H263.024L260.824 58H255.744L266.184 30H270.944L281.344 58H276.304ZM272.584 47.56L269.504 39.16C269.104 38.1467 268.797 37.2 268.584 36.32C268.371 37.0933 268.064 38.04 267.664 39.16L264.544 47.56H272.584ZM294.99 34.6V58H290.19V34.6H282.23V30H302.95V34.6H294.99ZM309.736 58V30H314.536V58H309.736ZM329.951 58L320.191 30H325.351L331.631 48.92C331.977 50.12 332.217 50.9733 332.351 51.48C332.457 50.92 332.684 50.0667 333.031 48.92L339.271 30H344.351L334.631 58H329.951ZM359.836 58.48C358.103 58.48 356.53 58.2 355.116 57.64C353.703 57.08 352.53 56.3333 351.596 55.4C350.69 54.44 349.916 53.3333 349.276 52.08C348.663 50.8267 348.223 49.5333 347.956 48.2C347.69 46.84 347.556 45.44 347.556 44C347.556 42.56 347.69 41.1733 347.956 39.84C348.223 38.48 348.663 37.1733 349.276 35.92C349.916 34.6667 350.69 33.5733 351.596 32.64C352.53 31.68 353.703 30.92 355.116 30.36C356.53 29.8 358.103 29.52 359.836 29.52C361.996 29.52 363.89 29.9467 365.516 30.8C367.17 31.6267 368.45 32.76 369.356 34.2C370.29 35.6133 370.983 37.1467 371.436 38.8C371.89 40.4533 372.116 42.1867 372.116 44C372.116 45.8133 371.89 47.5467 371.436 49.2C370.983 50.8533 370.29 52.4 369.356 53.84C368.45 55.2533 367.17 56.3867 365.516 57.24C363.89 58.0667 361.996 58.48 359.836 58.48ZM359.836 53.88C361.116 53.88 362.25 53.5733 363.236 52.96C364.223 52.3467 364.983 51.5467 365.516 50.56C366.076 49.5467 366.49 48.4933 366.756 47.4C367.023 46.28 367.156 45.1467 367.156 44C367.156 42.7733 367.023 41.6133 366.756 40.52C366.49 39.4 366.076 38.3467 365.516 37.36C364.983 36.3733 364.223 35.5867 363.236 35C362.276 34.4133 361.143 34.12 359.836 34.12C358.13 34.12 356.703 34.6667 355.556 35.76C354.41 36.8267 353.61 38.0667 353.156 39.48C352.73 40.8933 352.516 42.4 352.516 44C352.516 45.2 352.65 46.36 352.916 47.48C353.183 48.6 353.583 49.6533 354.116 50.64C354.676 51.6267 355.436 52.4133 356.396 53C357.383 53.5867 358.53 53.88 359.836 53.88Z" fill="#E3252D"/>
<path d="M63.9 0H7.1C3.195 0 0.0355 3.20625 0.0355 7.125L0 49.875C0 53.7938 3.195 57 7.1 57H63.9C67.805 57 71 53.7938 71 49.875V7.125C71 3.20625 67.805 0 63.9 0ZM63.9 14.25L35.5 32.0625L7.1 14.25V7.125L35.5 24.9375L63.9 7.125V14.25Z" fill="#E3252D"/>
</svg>
