<svg width="138" height="130" viewBox="0 0 138 130" fill="none" xmlns="http://www.w3.org/2000/svg">
<path d="M0 2C0 0.89543 0.895431 0 2 0H136C137.105 0 138 0.895431 138 2V102L126.5 116L115 130H2C0.895433 130 0 129.105 0 128V2Z" fill="#22FF7A"/>
<path d="M69.1798 17.782L67.5 22.5L68 22.5C68 22.5 68.9026 22.4536 69 22.5C69.0974 22.5464 70 23 70 23L71.5993 18.5472C71.1827 18.4984 70.7651 18.4156 70.3515 18.2848C69.938 18.154 69.5487 17.9816 69.1798 17.782ZM74.3247 5.72169C71.3181 4.77082 68.0804 6.53107 67.0929 9.65338C66.1054 12.7757 67.7422 16.0776 70.7489 17.0285C73.7555 17.9793 76.9932 16.2191 77.9807 13.0968C78.9682 9.97445 77.3314 6.67257 74.3247 5.72169ZM73.3811 8.70542C71.9634 8.25706 70.4317 9.08982 69.9661 10.5621C69.8839 10.8219 69.6137 10.9688 69.3634 10.8897C69.1132 10.8105 68.9766 10.535 69.0588 10.2751C69.6886 8.28346 71.7616 7.15677 73.6791 7.76319C73.9294 7.84234 74.066 8.11788 73.9838 8.37778C73.9016 8.63768 73.6314 8.78457 73.3811 8.70542Z" fill="url(#paint0_linear)"/>
<defs>
<linearGradient id="paint0_linear" x1="74.3247" y1="5.72169" x2="68.444" y2="24.3162" gradientUnits="userSpaceOnUse">
<stop offset="0.473958" stop-color="#161A1D"/>
<stop offset="1" stop-color="#383B3E"/>
</linearGradient>
</defs>
</svg>
